<?xml version="1.0" encoding="UTF-8"?>
<!DOCTYPE svg PUBLIC "-//W3C//DTD SVG 1.1//EN" "http://www.w3.org/Graphics/SVG/1.1/DTD/svg11.dtd">
<svg xmlns="http://www.w3.org/2000/svg" version="1.1" width="55px" height="71px" style="shape-rendering:geometricPrecision; text-rendering:geometricPrecision; image-rendering:optimizeQuality; fill-rule:evenodd; clip-rule:evenodd" xmlns:xlink="http://www.w3.org/1999/xlink">
<g><path style="opacity:1" fill="#4db6b6" d="M 4.5,6.5 C 10.5,6.5 16.5,6.5 22.5,6.5C 21.3915,7.28997 20.0581,7.78997 18.5,8C 19.1667,8.33333 19.8333,8.66667 20.5,9C 19.1667,9.33333 17.8333,9.66667 16.5,10C 17.1667,10.3333 17.8333,10.6667 18.5,11C 17.1667,11.3333 15.8333,11.6667 14.5,12C 15.1667,12.3333 15.8333,12.6667 16.5,13C 15.1667,13.3333 13.8333,13.6667 12.5,14C 13.1667,14.3333 13.8333,14.6667 14.5,15C 13.1667,15.3333 11.8333,15.6667 10.5,16C 11.4158,16.2784 12.0825,16.7784 12.5,17.5C 9.83333,17.5 7.16667,17.5 4.5,17.5C 4.5,13.8333 4.5,10.1667 4.5,6.5 Z"/></g>
<g><path style="opacity:1" fill="#4eb3b9" d="M 22.5,6.5 C 26.8333,6.5 31.1667,6.5 35.5,6.5C 32.7339,11.0035 28.7339,15.1701 23.5,19C 23.8333,19.3333 24.1667,19.6667 24.5,20C 23.552,20.4828 22.552,20.6495 21.5,20.5C 21.6716,19.5084 21.3382,18.8417 20.5,18.5C 18.0521,17.5269 15.3854,17.1936 12.5,17.5C 12.0825,16.7784 11.4158,16.2784 10.5,16C 11.8333,15.6667 13.1667,15.3333 14.5,15C 13.8333,14.6667 13.1667,14.3333 12.5,14C 13.8333,13.6667 15.1667,13.3333 16.5,13C 15.8333,12.6667 15.1667,12.3333 14.5,12C 15.8333,11.6667 17.1667,11.3333 18.5,11C 17.8333,10.6667 17.1667,10.3333 16.5,10C 17.8333,9.66667 19.1667,9.33333 20.5,9C 19.8333,8.66667 19.1667,8.33333 18.5,8C 20.0581,7.78997 21.3915,7.28997 22.5,6.5 Z"/></g>
<g><path style="opacity:1" fill="#4fb0be" d="M 35.5,6.5 C 40.8333,6.5 46.1667,6.5 51.5,6.5C 51.5,10.1667 51.5,13.8333 51.5,17.5C 45.9738,17.1786 40.6405,17.5119 35.5,18.5C 34.5151,22.6344 34.1818,26.9677 34.5,31.5C 33.1266,31.3433 31.7932,31.51 30.5,32C 31.1667,32.3333 31.8333,32.6667 32.5,33C 30.7738,34.5298 28.7738,35.5298 26.5,36C 27.1667,36.3333 27.8333,36.6667 28.5,37C 26.7738,38.5298 24.7738,39.5298 22.5,40C 23.1667,40.3333 23.8333,40.6667 24.5,41C 23.3333,41.5 22.5,42.3333 22,43.5C 21.5003,35.8406 21.3336,28.1739 21.5,20.5C 22.552,20.6495 23.552,20.4828 24.5,20C 24.1667,19.6667 23.8333,19.3333 23.5,19C 28.7339,15.1701 32.7339,11.0035 35.5,6.5 Z"/></g>
<g><path style="opacity:1" fill="#93d1d3" d="M 4.5,6.5 C 4.5,10.1667 4.5,13.8333 4.5,17.5C 7.16667,17.5 9.83333,17.5 12.5,17.5C 15.3854,17.1936 18.0521,17.5269 20.5,18.5C 14.8333,18.5 9.16667,18.5 3.5,18.5C 3.18325,14.2984 3.51658,10.2984 4.5,6.5 Z"/></g>
<g><path style="opacity:1" fill="#8dcad5" d="M 51.5,6.5 C 52.4834,10.2984 52.8168,14.2984 52.5,18.5C 46.8333,18.5 41.1667,18.5 35.5,18.5C 40.6405,17.5119 45.9738,17.1786 51.5,17.5C 51.5,13.8333 51.5,10.1667 51.5,6.5 Z"/></g>
<g><path style="opacity:1" fill="#63b5c7" d="M 20.5,18.5 C 21.3382,18.8417 21.6716,19.5084 21.5,20.5C 21.3336,28.1739 21.5003,35.8406 22,43.5C 22.5,42.3333 23.3333,41.5 24.5,41C 23.8333,40.6667 23.1667,40.3333 22.5,40C 24.7738,39.5298 26.7738,38.5298 28.5,37C 27.8333,36.6667 27.1667,36.3333 26.5,36C 28.7738,35.5298 30.7738,34.5298 32.5,33C 31.8333,32.6667 31.1667,32.3333 30.5,32C 31.7932,31.51 33.1266,31.3433 34.5,31.5C 34.1818,26.9677 34.5151,22.6344 35.5,18.5C 35.8293,33.0097 35.4959,47.3431 34.5,61.5C 34.5,55.8333 34.5,50.1667 34.5,44.5C 31.4017,44.4125 31.0684,44.9125 33.5,46C 31.5,46.3333 29.5,46.6667 27.5,47C 32.8333,47.6667 32.8333,48.3333 27.5,49C 28.1667,49.3333 28.8333,49.6667 29.5,50C 21.5,50.6667 21.5,51.3333 29.5,52C 25.3522,52.1843 22.6855,53.0177 21.5,54.5C 21.5,56.8333 21.5,59.1667 21.5,61.5C 20.5041,47.3431 20.1707,33.0097 20.5,18.5 Z"/></g>
<g><path style="opacity:1" fill="#52aac5" d="M 34.5,61.5 C 30.1667,61.5 25.8333,61.5 21.5,61.5C 21.5,59.1667 21.5,56.8333 21.5,54.5C 22.6855,53.0177 25.3522,52.1843 29.5,52C 21.5,51.3333 21.5,50.6667 29.5,50C 28.8333,49.6667 28.1667,49.3333 27.5,49C 32.8333,48.3333 32.8333,47.6667 27.5,47C 29.5,46.6667 31.5,46.3333 33.5,46C 31.0684,44.9125 31.4017,44.4125 34.5,44.5C 34.5,50.1667 34.5,55.8333 34.5,61.5 Z"/></g>
</svg>
