<svg xmlns="http://www.w3.org/2000/svg" xmlns:xlink="http://www.w3.org/1999/xlink" contentStyleType="text/css" height="372px" preserveAspectRatio="none" style="width:579px;height:372px;background:#FFFFFF;" version="1.1" viewBox="0 0 579 372" width="579px" zoomAndPan="magnify"><title>&#10060; L&#7895;i "error in libcrypto" tr&#234;n Windows</title><defs/><g><text fill="#000000" font-family="sans-serif" font-size="14" font-weight="bold" lengthAdjust="spacing" textLength="310.2148" x="133.4365" y="27.9951">&#10060; L&#7895;i "error in libcrypto" tr&#234;n Windows</text><line style="stroke:#181818;stroke-width:0.5;stroke-dasharray:5.0,5.0;" x1="44" x2="44" y1="89.8906" y2="320.9531"/><line style="stroke:#181818;stroke-width:0.5;stroke-dasharray:5.0,5.0;" x1="285.3931" x2="285.3931" y1="89.8906" y2="320.9531"/><line style="stroke:#181818;stroke-width:0.5;stroke-dasharray:5.0,5.0;" x1="435.2988" x2="435.2988" y1="89.8906" y2="320.9531"/><line style="stroke:#181818;stroke-width:0.5;stroke-dasharray:5.0,5.0;" x1="541.5732" x2="541.5732" y1="89.8906" y2="320.9531"/><rect fill="#E2E2F0" height="46.5938" rx="2.5" ry="2.5" style="stroke:#181818;stroke-width:0.5;" width="79.208" x="5" y="42.2969"/><text fill="#000000" font-family="sans-serif" font-size="14" lengthAdjust="spacing" textLength="62.8018" x="13.2031" y="62.292">Windows</text><text fill="#000000" font-family="sans-serif" font-size="14" lengthAdjust="spacing" textLength="65.208" x="12" y="78.5889">Git Client</text><rect fill="#E2E2F0" height="46.5938" rx="2.5" ry="2.5" style="stroke:#181818;stroke-width:0.5;" width="79.208" x="5" y="319.9531"/><text fill="#000000" font-family="sans-serif" font-size="14" lengthAdjust="spacing" textLength="62.8018" x="13.2031" y="339.9482">Windows</text><text fill="#000000" font-family="sans-serif" font-size="14" lengthAdjust="spacing" textLength="65.208" x="12" y="356.2451">Git Client</text><rect fill="#E2E2F0" height="46.5938" rx="2.5" ry="2.5" style="stroke:#181818;stroke-width:0.5;" width="98.6904" x="236.3931" y="42.2969"/><text fill="#000000" font-family="sans-serif" font-size="14" lengthAdjust="spacing" textLength="65.6934" x="252.8916" y="62.292">OpenSSH</text><text fill="#000000" font-family="sans-serif" font-size="14" lengthAdjust="spacing" textLength="84.6904" x="243.3931" y="78.5889">on Windows</text><rect fill="#E2E2F0" height="46.5938" rx="2.5" ry="2.5" style="stroke:#181818;stroke-width:0.5;" width="98.6904" x="236.3931" y="319.9531"/><text fill="#000000" font-family="sans-serif" font-size="14" lengthAdjust="spacing" textLength="65.6934" x="252.8916" y="339.9482">OpenSSH</text><text fill="#000000" font-family="sans-serif" font-size="14" lengthAdjust="spacing" textLength="84.6904" x="243.3931" y="356.2451">on Windows</text><rect fill="#E2E2F0" height="46.5938" rx="2.5" ry="2.5" style="stroke:#181818;stroke-width:0.5;" width="129.2744" x="371.2988" y="42.2969"/><text fill="#000000" font-family="sans-serif" font-size="14" lengthAdjust="spacing" textLength="79.584" x="396.144" y="62.292">Private Key</text><text fill="#000000" font-family="sans-serif" font-size="14" lengthAdjust="spacing" textLength="115.2744" x="378.2988" y="78.5889">(macOS Format)</text><rect fill="#E2E2F0" height="46.5938" rx="2.5" ry="2.5" style="stroke:#181818;stroke-width:0.5;" width="129.2744" x="371.2988" y="319.9531"/><text fill="#000000" font-family="sans-serif" font-size="14" lengthAdjust="spacing" textLength="79.584" x="396.144" y="339.9482">Private Key</text><text fill="#000000" font-family="sans-serif" font-size="14" lengthAdjust="spacing" textLength="115.2744" x="378.2988" y="356.2451">(macOS Format)</text><rect fill="#E2E2F0" height="30.2969" rx="2.5" ry="2.5" style="stroke:#181818;stroke-width:0.5;" width="62.5146" x="510.5732" y="58.5938"/><text fill="#000000" font-family="sans-serif" font-size="14" lengthAdjust="spacing" textLength="48.5146" x="517.5732" y="78.5889">GitHub</text><rect fill="#E2E2F0" height="30.2969" rx="2.5" ry="2.5" style="stroke:#181818;stroke-width:0.5;" width="62.5146" x="510.5732" y="319.9531"/><text fill="#000000" font-family="sans-serif" font-size="14" lengthAdjust="spacing" textLength="48.5146" x="517.5732" y="339.9482">GitHub</text><polygon fill="#181818" points="273.7383,117.0234,283.7383,121.0234,273.7383,125.0234,277.7383,121.0234" style="stroke:#181818;stroke-width:1;"/><line style="stroke:#181818;stroke-width:1;" x1="44.604" x2="279.7383" y1="121.0234" y2="121.0234"/><text fill="#000000" font-family="sans-serif" font-size="13" lengthAdjust="spacing" textLength="217.1343" x="51.604" y="115.9575">Load private key (macOS format)</text><polygon fill="#181818" points="423.936,146.1563,433.936,150.1563,423.936,154.1563,427.936,150.1563" style="stroke:#181818;stroke-width:1;"/><line style="stroke:#181818;stroke-width:1;" x1="285.7383" x2="429.936" y1="150.1563" y2="150.1563"/><text fill="#000000" font-family="sans-serif" font-size="13" lengthAdjust="spacing" textLength="60.6011" x="292.7383" y="145.0903">Read key</text><polygon fill="#181818" points="296.7383,175.2891,286.7383,179.2891,296.7383,183.2891,292.7383,179.2891" style="stroke:#181818;stroke-width:1;"/><line style="stroke:#181818;stroke-width:1;" x1="290.7383" x2="434.936" y1="179.2891" y2="179.2891"/><text fill="#000000" font-family="sans-serif" font-size="13" lengthAdjust="spacing" textLength="126.1978" x="302.7383" y="174.2231">&#10060; error in libcrypto</text><polygon fill="#181818" points="55.604,204.4219,45.604,208.4219,55.604,212.4219,51.604,208.4219" style="stroke:#181818;stroke-width:1;"/><line style="stroke:#181818;stroke-width:1;" x1="49.604" x2="284.7383" y1="208.4219" y2="208.4219"/><text fill="#000000" font-family="sans-serif" font-size="13" lengthAdjust="spacing" textLength="213.0337" x="61.604" y="203.356">&#10060; Permission denied (publickey)</text><polygon fill="#FF0000" points="529.8306,233.5547,539.8306,237.5547,529.8306,241.5547,533.8306,237.5547" style="stroke:#FF0000;stroke-width:1;"/><line style="stroke:#FF0000;stroke-width:1;" x1="44.604" x2="535.8306" y1="237.5547" y2="237.5547"/><text fill="#000000" font-family="sans-serif" font-size="13" lengthAdjust="spacing" textLength="166.5181" x="51.604" y="232.4888">&#10060; Could not authenticate</text><path d="M49,250.5547 L49,305.5547 L256,305.5547 L256,260.5547 L246,250.5547 L49,250.5547 " fill="#FEFFDD" style="stroke:#181818;stroke-width:0.5;"/><path d="M246,250.5547 L246,260.5547 L256,260.5547 L246,250.5547 " fill="#FEFFDD" style="stroke:#181818;stroke-width:0.5;"/><text fill="#000000" font-family="sans-serif" font-size="13" lengthAdjust="spacing" textLength="161.5225" x="55" y="267.6216">L&#7895;i x&#7843;y ra do private key</text><text fill="#000000" font-family="sans-serif" font-size="13" lengthAdjust="spacing" textLength="182.292" x="55" y="282.7544">&#273;&#432;&#7907;c t&#7841;o tr&#234;n macOS kh&#244;ng</text><text fill="#000000" font-family="sans-serif" font-size="13" lengthAdjust="spacing" textLength="160.0879" x="55" y="297.8872">t&#432;&#417;ng th&#237;ch v&#7899;i Windows</text><!--SRC=[PL8zJm914EttLqpE1Wh_00KDYP980f72GenPRWTkmh5xsPj3xp_OM5aO2q9dOa9X1IM6_t7-4fUx3H_IRMRUc_VcpJ9nZF3xyGATOlr64A2rnW9fY6aOsZnX4m3RpQU6EzBAFAL29D8oXPH8pH3uwa1V4qCh9jGSW4ntw5DWDq7TxxS7skn7bK1VVpmZz2pD92FSO3xGjQaCktsuCdOgkLuIVT-rJtdEI3iRbf3gAOIR3PVDOwa6T8nKa7YD2URW9KQLX3W2xxW7jGRSegCwYZWKpyRl8ZtFyl_KFRI7TaffIYuSXPfGGIt9XZ65JgPU-R-_iAWUcdwfYjOoMQn06mQPSUIofz3v4S9L42oD8mOpAczHdVUvM2roi1AKETbT_BnkbyLw4G8Ngxdn5wy2cKIRRpq6mTlbTkuU76s-mWXcnVgTzfy2TMa3_m00]--></g></svg>