<!--?xml version="1.0" encoding="us-ascii" standalone="no"?--><svg xmlns="http://www.w3.org/2000/svg" xmlns:xlink="http://www.w3.org/1999/xlink" contentstyletype="text/css" height="322px" preserveAspectRatio="none" style="width:861px;height:322px;background:#FFFFFF;" version="1.1" viewBox="0 0 861 322" width="861px" zoomAndPan="magnify"><defs></defs><g><!--cluster Business systems--><g id="cluster_Business systems"><path d="M8.5,6 L151.5,6 A3.75,3.75 0 0 1 154,8.5 L161,28.2969 L851.5,28.2969 A2.5,2.5 0 0 1 854,30.7969 L854,313.39 A2.5,2.5 0 0 1 851.5,315.89 L8.5,315.89 A2.5,2.5 0 0 1 6,313.39 L6,8.5 A2.5,2.5 0 0 1 8.5,6 " fill="none" style="stroke:#000000;stroke-width:1.5;"></path><line style="stroke:#000000;stroke-width:1.5;" x1="6" x2="161" y1="28.2969" y2="28.2969"></line><text fill="#000000" font-family="sans-serif" font-size="14" font-weight="bold" lengthAdjust="spacing" textLength="142" x="10" y="20.9951">Business systems</text></g><!--entity Component 5--><g id="elem_Component 5"><rect fill="#F1F1F1" height="46.2969" rx="2.5" ry="2.5" style="stroke:#181818;stroke-width:0.5;" width="135" x="532.5" y="41"></rect><rect fill="#F1F1F1" height="10" style="stroke:#181818;stroke-width:0.5;" width="15" x="647.5" y="46"></rect><rect fill="#F1F1F1" height="2" style="stroke:#181818;stroke-width:0.5;" width="4" x="645.5" y="48"></rect><rect fill="#F1F1F1" height="2" style="stroke:#181818;stroke-width:0.5;" width="4" x="645.5" y="52"></rect><text fill="#000000" font-family="sans-serif" font-size="14" lengthAdjust="spacing" textLength="95" x="547.5" y="73.9951">Component 5</text></g><!--entity Module 1--><g id="elem_Module 1"><rect fill="#F1F1F1" height="46.2969" rx="2.5" ry="2.5" style="stroke:#181818;stroke-width:0.5;" width="104" x="679" y="147.3"></rect><rect fill="#F1F1F1" height="10" style="stroke:#181818;stroke-width:0.5;" width="15" x="763" y="152.3"></rect><rect fill="#F1F1F1" height="2" style="stroke:#181818;stroke-width:0.5;" width="4" x="761" y="154.3"></rect><rect fill="#F1F1F1" height="2" style="stroke:#181818;stroke-width:0.5;" width="4" x="761" y="158.3"></rect><text fill="#000000" font-family="sans-serif" font-size="14" lengthAdjust="spacing" textLength="64" x="694" y="180.2951">Module 1</text></g><!--entity Module 5--><g id="elem_Module 5"><rect fill="#F1F1F1" height="46.2969" rx="2.5" ry="2.5" style="stroke:#181818;stroke-width:0.5;" width="104" x="540" y="147.3"></rect><rect fill="#F1F1F1" height="10" style="stroke:#181818;stroke-width:0.5;" width="15" x="624" y="152.3"></rect><rect fill="#F1F1F1" height="2" style="stroke:#181818;stroke-width:0.5;" width="4" x="622" y="154.3"></rect><rect fill="#F1F1F1" height="2" style="stroke:#181818;stroke-width:0.5;" width="4" x="622" y="158.3"></rect><text fill="#000000" font-family="sans-serif" font-size="14" lengthAdjust="spacing" textLength="64" x="555" y="180.2951">Module 5</text></g><!--entity Module 3--><g id="elem_Module 3"><rect fill="#F1F1F1" height="46.2969" rx="2.5" ry="2.5" style="stroke:#181818;stroke-width:0.5;" width="104" x="386" y="147.3"></rect><rect fill="#F1F1F1" height="10" style="stroke:#181818;stroke-width:0.5;" width="15" x="470" y="152.3"></rect><rect fill="#F1F1F1" height="2" style="stroke:#181818;stroke-width:0.5;" width="4" x="468" y="154.3"></rect><rect fill="#F1F1F1" height="2" style="stroke:#181818;stroke-width:0.5;" width="4" x="468" y="158.3"></rect><text fill="#000000" font-family="sans-serif" font-size="14" lengthAdjust="spacing" textLength="64" x="401" y="180.2951">Module 3</text></g><!--entity Component 4--><g id="elem_Component 4"><rect fill="#F1F1F1" height="46.2969" rx="2.5" ry="2.5" style="stroke:#181818;stroke-width:0.5;" width="135" x="702.5" y="41"></rect><rect fill="#F1F1F1" height="10" style="stroke:#181818;stroke-width:0.5;" width="15" x="817.5" y="46"></rect><rect fill="#F1F1F1" height="2" style="stroke:#181818;stroke-width:0.5;" width="4" x="815.5" y="48"></rect><rect fill="#F1F1F1" height="2" style="stroke:#181818;stroke-width:0.5;" width="4" x="815.5" y="52"></rect><text fill="#000000" font-family="sans-serif" font-size="14" lengthAdjust="spacing" textLength="95" x="717.5" y="73.9951">Component 4</text></g><!--entity Component 3--><g id="elem_Component 3"><rect fill="#F1F1F1" height="46.2969" rx="2.5" ry="2.5" style="stroke:#181818;stroke-width:0.5;" width="135" x="192.5" y="41"></rect><rect fill="#F1F1F1" height="10" style="stroke:#181818;stroke-width:0.5;" width="15" x="307.5" y="46"></rect><rect fill="#F1F1F1" height="2" style="stroke:#181818;stroke-width:0.5;" width="4" x="305.5" y="48"></rect><rect fill="#F1F1F1" height="2" style="stroke:#181818;stroke-width:0.5;" width="4" x="305.5" y="52"></rect><text fill="#000000" font-family="sans-serif" font-size="14" lengthAdjust="spacing" textLength="95" x="207.5" y="73.9951">Component 3</text></g><!--entity Module 2--><g id="elem_Module 2"><rect fill="#F1F1F1" height="46.2969" rx="2.5" ry="2.5" style="stroke:#181818;stroke-width:0.5;" width="104" x="223" y="147.3"></rect><rect fill="#F1F1F1" height="10" style="stroke:#181818;stroke-width:0.5;" width="15" x="307" y="152.3"></rect><rect fill="#F1F1F1" height="2" style="stroke:#181818;stroke-width:0.5;" width="4" x="305" y="154.3"></rect><rect fill="#F1F1F1" height="2" style="stroke:#181818;stroke-width:0.5;" width="4" x="305" y="158.3"></rect><text fill="#000000" font-family="sans-serif" font-size="14" lengthAdjust="spacing" textLength="64" x="238" y="180.2951">Module 2</text></g><!--entity Component 2--><g id="elem_Component 2"><rect fill="#F1F1F1" height="46.2969" rx="2.5" ry="2.5" style="stroke:#181818;stroke-width:0.5;" width="135" x="362.5" y="41"></rect><rect fill="#F1F1F1" height="10" style="stroke:#181818;stroke-width:0.5;" width="15" x="477.5" y="46"></rect><rect fill="#F1F1F1" height="2" style="stroke:#181818;stroke-width:0.5;" width="4" x="475.5" y="48"></rect><rect fill="#F1F1F1" height="2" style="stroke:#181818;stroke-width:0.5;" width="4" x="475.5" y="52"></rect><text fill="#000000" font-family="sans-serif" font-size="14" lengthAdjust="spacing" textLength="95" x="377.5" y="73.9951">Component 2</text></g><!--entity Component 1--><g id="elem_Component 1"><rect fill="#F1F1F1" height="46.2969" rx="2.5" ry="2.5" style="stroke:#181818;stroke-width:0.5;" width="135" x="22.5" y="41"></rect><rect fill="#F1F1F1" height="10" style="stroke:#181818;stroke-width:0.5;" width="15" x="137.5" y="46"></rect><rect fill="#F1F1F1" height="2" style="stroke:#181818;stroke-width:0.5;" width="4" x="135.5" y="48"></rect><rect fill="#F1F1F1" height="2" style="stroke:#181818;stroke-width:0.5;" width="4" x="135.5" y="52"></rect><text fill="#000000" font-family="sans-serif" font-size="14" lengthAdjust="spacing" textLength="95" x="37.5" y="73.9951">Component 1</text></g><!--entity Module 4--><g id="elem_Module 4"><rect fill="#F1F1F1" height="46.2969" rx="2.5" ry="2.5" style="stroke:#181818;stroke-width:0.5;" width="104" x="38" y="147.3"></rect><rect fill="#F1F1F1" height="10" style="stroke:#181818;stroke-width:0.5;" width="15" x="122" y="152.3"></rect><rect fill="#F1F1F1" height="2" style="stroke:#181818;stroke-width:0.5;" width="4" x="120" y="154.3"></rect><rect fill="#F1F1F1" height="2" style="stroke:#181818;stroke-width:0.5;" width="4" x="120" y="158.3"></rect><text fill="#000000" font-family="sans-serif" font-size="14" lengthAdjust="spacing" textLength="64" x="53" y="180.2951">Module 4</text></g><!--entity Module 6--><g id="elem_Module 6"><rect fill="#F1F1F1" height="46.2969" rx="2.5" ry="2.5" style="stroke:#181818;stroke-width:0.5;" width="104" x="524" y="253.59"></rect><rect fill="#F1F1F1" height="10" style="stroke:#181818;stroke-width:0.5;" width="15" x="608" y="258.59"></rect><rect fill="#F1F1F1" height="2" style="stroke:#181818;stroke-width:0.5;" width="4" x="606" y="260.59"></rect><rect fill="#F1F1F1" height="2" style="stroke:#181818;stroke-width:0.5;" width="4" x="606" y="264.59"></rect><text fill="#000000" font-family="sans-serif" font-size="14" lengthAdjust="spacing" textLength="64" x="539" y="286.5851">Module 6</text></g><!--entity Module 7--><g id="elem_Module 7"><rect fill="#F1F1F1" height="46.2969" rx="2.5" ry="2.5" style="stroke:#181818;stroke-width:0.5;" width="104" x="223" y="253.59"></rect><rect fill="#F1F1F1" height="10" style="stroke:#181818;stroke-width:0.5;" width="15" x="307" y="258.59"></rect><rect fill="#F1F1F1" height="2" style="stroke:#181818;stroke-width:0.5;" width="4" x="305" y="260.59"></rect><rect fill="#F1F1F1" height="2" style="stroke:#181818;stroke-width:0.5;" width="4" x="305" y="264.59"></rect><text fill="#000000" font-family="sans-serif" font-size="14" lengthAdjust="spacing" textLength="64" x="238" y="286.5851">Module 7</text></g><!--link Component 5 to Module 1--><g id="link_Component 5_Module 1"><path d="M628.43,87.78 C650.4,105.27 675.9756,125.6433 697.9356,143.1233 " fill="none" id="Component 5-to-Module 1" style="stroke:#181818;stroke-width:1.0;"></path><polygon fill="#181818" points="702.63,146.86,698.0796,138.1254,698.718,143.7461,693.0973,144.3846,702.63,146.86" style="stroke:#181818;stroke-width:1.0;"></polygon></g><!--link Component 5 to Module 5--><g id="link_Component 5_Module 5"><path d="M598.26,87.78 C596.92,105.27 595.5286,123.3976 594.1886,140.8776 " fill="none" id="Component 5-to-Module 5" style="stroke:#181818;stroke-width:1.0;"></path><polygon fill="#181818" points="593.73,146.86,598.4062,138.1921,594.1122,141.8746,590.4296,137.5806,593.73,146.86" style="stroke:#181818;stroke-width:1.0;"></polygon></g><!--link Component 5 to Module 3--><g id="link_Component 5_Module 3"><path d="M564.85,87.78 C537.68,105.27 505.2854,126.1328 478.1254,143.6128 " fill="none" id="Component 5-to-Module 3" style="stroke:#181818;stroke-width:1.0;"></path><polygon fill="#181818" points="473.08,146.86,482.8129,145.3528,477.2845,144.154,478.4833,138.6257,473.08,146.86" style="stroke:#181818;stroke-width:1.0;"></polygon></g><!--link Component 4 to Module 1--><g id="link_Component 4_Module 1"><path d="M761.54,87.78 C755,105.27 748.0797,123.7594 741.5497,141.2394 " fill="none" id="Component 4-to-Module 1" style="stroke:#181818;stroke-width:1.0;"></path><polygon fill="#181818" points="739.45,146.86,746.3466,139.8289,741.1997,142.1762,738.8525,137.0293,739.45,146.86" style="stroke:#181818;stroke-width:1.0;"></polygon></g><!--link Component 3 to Module 2--><g id="link_Component 3_Module 2"><path d="M263.25,87.78 C265.77,105.27 268.3872,123.4409 270.8972,140.9209 " fill="none" id="Component 3-to-Module 2" style="stroke:#181818;stroke-width:1.0;"></path><polygon fill="#181818" points="271.75,146.86,274.4302,137.3828,271.0393,141.9108,266.5114,138.5199,271.75,146.86" style="stroke:#181818;stroke-width:1.0;"></polygon></g><!--link Component 2 to Module 3--><g id="link_Component 2_Module 3"><path d="M431.74,87.78 C433.08,105.27 434.4714,123.3976 435.8114,140.8776 " fill="none" id="Component 2-to-Module 3" style="stroke:#181818;stroke-width:1.0;"></path><polygon fill="#181818" points="436.27,146.86,439.5704,137.5806,435.8878,141.8746,431.5938,138.1921,436.27,146.86" style="stroke:#181818;stroke-width:1.0;"></polygon></g><!--link Component 1 to Module 4--><g id="link_Component 1_Module 4"><path d="M90,87.78 C90,105.27 90,123.38 90,140.86 " fill="none" id="Component 1-to-Module 4" style="stroke:#181818;stroke-width:1.0;"></path><polygon fill="#181818" points="90,146.86,94,137.86,90,141.86,86,137.86,90,146.86" style="stroke:#181818;stroke-width:1.0;"></polygon></g><!--link Module 1 to Module 6--><g id="link_Module 1_Module 6"><path d="M697.37,194.08 C671.37,211.57 640.5281,232.3206 614.5481,249.8006 " fill="none" id="Module 1-to-Module 6" style="stroke:#181818;stroke-width:1.0;"></path><polygon fill="#181818" points="609.57,253.15,619.2701,251.4446,613.7184,250.3588,614.8042,244.8072,609.57,253.15" style="stroke:#181818;stroke-width:1.0;"></polygon></g><!--link Module 2 to Module 7--><g id="link_Module 2_Module 7"><path d="M275,194.08 C275,211.57 275,229.67 275,247.15 " fill="none" id="Module 2-to-Module 7" style="stroke:#181818;stroke-width:1.0;"></path><polygon fill="#181818" points="275,253.15,279,244.15,275,248.15,271,244.15,275,253.15" style="stroke:#181818;stroke-width:1.0;"></polygon></g><!--link Module 2 to Module 6--><g id="link_Module 2_Module 6"><path d="M327.43,189.61 C382.51,208.7 462.9505,236.576 518.0005,255.646 " fill="none" id="Module 2-to-Module 6" style="stroke:#181818;stroke-width:1.0;"></path><polygon fill="#181818" points="523.67,257.61,516.4751,250.8844,518.9454,255.9734,513.8565,258.4437,523.67,257.61" style="stroke:#181818;stroke-width:1.0;"></polygon></g><!--SRC=[AqXCpavCJrLGSYejpinBBIvMAAuiBadDBLPIgEPIK8XspiyjoCzBpIjHC8rLqDMrKuZspKyfpKbLC8p5AssANzeOJTe4l-76gD96QD96-0qtH9KsYUK2oSEjGf4q0-b5iWX5qXoV951dBG00]--></g></svg>