<svg xmlns="http://www.w3.org/2000/svg" width="75" height="22" viewBox="0 0 75 22" fill="none" class="gnb-logoDosi"><path d="M6.29016 0L13.6164 2.36287C16.074 3.15603 17.7262 5.43406 17.7262 8.03211V13.9679C17.7262 16.5659 16.0749 18.844 13.6164 19.6371L6.29016 22V0ZM7.70042 3.43733L11.9312 4.67871C13.555 5.15553 14.6885 6.67729 14.6885 8.37889V13.5317C14.6885 15.2305 13.6054 16.7098 11.9935 17.2134L7.70042 18.5534V20.0549L13.1857 18.2851C15.0578 17.681 16.3159 15.9462 16.3159 13.967V8.03303C16.3159 6.05475 15.0578 4.31902 13.1857 3.71493L7.70042 1.94508V3.43733ZM7.70042 6.38769L10.1132 7.03698C11.1276 7.30997 11.8359 8.23778 11.8359 9.29471V12.7108C11.8359 13.7687 11.1266 14.6974 10.1104 14.9695L7.70042 15.6151V17.0695L11.5757 15.8595C12.5946 15.5413 13.2782 14.607 13.2782 13.5335V8.38073C13.2782 7.30536 12.5616 6.34342 11.5362 6.04276L7.70042 4.91666V6.38861V6.38769ZM7.70042 14.1459L9.74846 13.5981C10.1471 13.4911 10.4256 13.1268 10.4256 12.7108V9.29471C10.4256 8.87968 10.1471 8.51539 9.74937 8.4084L7.70042 7.8578V14.1468V14.1459Z" fill="white"></path><path d="M3.49707 19.2624L4.90751 20.6449V1.35642L3.49707 2.73799V19.2624Z" fill="white"></path><path d="M2.32511 3.88551L0.914673 5.26801V16.7319L2.32511 18.1144V3.88551Z" fill="white"></path><path d="M24.4719 18.2347V3.76877C24.4719 3.5631 24.5947 3.43951 24.7991 3.43951H30.3475C35.1996 3.43951 37.9642 6.09752 37.9642 11.0022C37.9642 15.9069 35.2005 18.5649 30.3475 18.5649H24.7991C24.5947 18.5649 24.4719 18.4413 24.4719 18.2356V18.2347ZM28.239 6.98383V15.0205H29.9792C32.6412 15.0205 34.0743 13.7017 34.0743 11.0022C34.0743 8.30268 32.6412 6.98383 29.9792 6.98383H28.239Z" fill="white"></path><path d="M39.1514 11.001C39.1514 6.32321 42.4475 3.14966 46.911 3.14966C51.3745 3.14966 54.6706 6.32321 54.6706 11.001C54.6706 15.6788 51.3745 18.8524 46.911 18.8524C42.4475 18.8524 39.1514 15.6788 39.1514 11.001ZM50.7193 11.001C50.7193 8.56896 49.1835 6.87935 46.911 6.87935C44.6385 6.87935 43.1027 8.56896 43.1027 11.001C43.1027 13.433 44.6385 15.1227 46.911 15.1227C49.1835 15.1227 50.7193 13.433 50.7193 11.001Z" fill="white"></path><path d="M55.2226 14.834C55.1612 14.6283 55.2428 14.4835 55.448 14.4217L58.2942 13.7208C58.4784 13.6793 58.6213 13.7411 58.7038 13.9265C59.1547 15.0184 59.9116 15.4722 61.1202 15.4722C62.1025 15.4722 62.7788 15.143 62.7788 14.442C62.7788 13.6793 62.1236 13.3085 60.8746 12.8557L59.3187 12.2996C57.026 11.4963 55.5717 9.99203 55.5717 7.74537C55.5717 5.04586 57.9671 3.14966 60.9562 3.14966C63.4743 3.14966 65.4811 4.30343 66.3205 6.87935C66.402 7.08502 66.3003 7.2501 66.1161 7.29161L63.127 8.09491C62.9227 8.1567 62.7999 8.07462 62.7174 7.88924C62.2666 6.81755 61.6526 6.52888 60.8948 6.52888C60.0756 6.52888 59.4616 6.89964 59.4616 7.53878C59.4616 8.17791 60.0142 8.61046 61.55 9.12509L62.6762 9.49585C65.3382 10.4024 66.6485 11.7628 66.6485 14.2557C66.6485 16.9349 64.3348 18.8514 61.0185 18.8514C58.1723 18.8514 56.0638 17.4293 55.2244 14.8331L55.2226 14.834Z" fill="white"></path><path d="M67.7314 18.2344V3.76846C67.7314 3.56279 67.8543 3.43921 68.0586 3.43921H71.2323C71.4367 3.43921 71.5595 3.56279 71.5595 3.76846V18.2344C71.5595 18.44 71.4367 18.5636 71.2323 18.5636H68.0586C67.8543 18.5636 67.7314 18.44 67.7314 18.2344Z" fill="white"></path></svg>
