<svg xmlns="http://www.w3.org/2000/svg" width="70" height="22" fill="none" viewBox="0 0 70 22"><path fill="currentColor" d="m5.269 0 7.188 2.36c2.41.792 4.031 3.072 4.031 5.672v5.936c0 2.6-1.621 4.88-4.03 5.672L5.267 22zm1.387 3.44 4.148 1.24c1.591.48 2.706 2 2.706 3.704v5.152c0 1.696-1.06 3.176-2.643 3.68l-4.21 1.336v1.504l5.38-1.768c1.84-.6 3.071-2.336 3.071-4.32V8.032c0-1.976-1.232-3.712-3.072-4.32l-5.38-1.768zm0 2.944 2.37.648c.999.272 1.693 1.2 1.693 2.256v3.416c0 1.056-.694 1.984-1.692 2.256l-2.363.648v1.456l3.805-1.208c.998-.32 1.669-1.256 1.669-2.328V8.376c0-1.072-.702-2.04-1.708-2.336L6.664 4.912v1.472zm0 7.76 2.012-.552a.914.914 0 0 0 .663-.888V9.288a.92.92 0 0 0-.663-.888l-2.012-.552zm-4.122 5.12 1.38 1.376V1.352l-1.38 1.384zM1.38 3.886 0 5.262v11.465l1.38 1.383zm21.731 14.348V3.769c0-.208.117-.328.32-.328h5.442c4.756 0 7.47 2.656 7.47 7.56 0 4.865-2.714 7.56-7.47 7.56h-5.442c-.203 0-.32-.12-.32-.327m3.696-11.249v8.04h1.708c2.612 0 4.015-1.32 4.015-4.016s-1.403-4.016-4.015-4.016h-1.708zm10.695 4.017c0-4.68 3.236-7.848 7.61-7.848 4.382 0 7.61 3.176 7.61 7.848 0 4.68-3.236 7.848-7.61 7.848s-7.61-3.168-7.61-7.848m11.352 0c0-2.432-1.504-4.12-3.734-4.12s-3.735 1.688-3.735 4.12 1.505 4.12 3.735 4.12c2.222 0 3.734-1.688 3.734-4.12m4.416 3.83c-.063-.208.022-.352.217-.416l2.792-.704c.18-.04.32.024.405.208.445 1.096 1.185 1.544 2.37 1.544.967 0 1.63-.328 1.63-1.032 0-.76-.64-1.136-1.871-1.584l-1.529-.56c-2.245-.8-3.672-2.304-3.672-4.552 0-2.696 2.347-4.591 5.279-4.591 2.471 0 4.436 1.152 5.263 3.727.078.208-.024.368-.203.416l-2.932.8c-.202.064-.32-.024-.405-.208-.445-1.072-1.045-1.36-1.786-1.36-.803 0-1.403.368-1.403 1.008s.546 1.072 2.05 1.584l1.108.368c2.612.904 3.898 2.264 3.898 4.76 0 2.68-2.269 4.592-5.52 4.592-2.8.016-4.865-1.4-5.692-4m12.271 3.402V3.769c0-.208.116-.328.319-.328h3.11c.204 0 .32.12.32.328v14.465c0 .208-.117.328-.32.328h-3.11c-.203 0-.32-.12-.32-.328"/></svg>